<svg xmlns="http://www.w3.org/2000/svg" version="1.1" xmlns:xlink="http://www.w3.org/1999/xlink" xmlns:svgjs="http://svgjs.dev/svgjs" width="1000" height="1000"><g clip-path="url(#SvgjsClipPath1012)"><rect width="1000" height="1000" fill="#d9ec26"></rect><g transform="matrix(0.6481481481481481,0,0,0.6481481481481481,150,150)"><svg xmlns="http://www.w3.org/2000/svg" version="1.1" xmlns:xlink="http://www.w3.org/1999/xlink" xmlns:svgjs="http://svgjs.dev/svgjs" width="1080" height="1080"><svg xmlns="http://www.w3.org/2000/svg" xmlns:xlink="http://www.w3.org/1999/xlink" width="1080" zoomAndPan="magnify" viewBox="0 0 810 809.999993" height="1080" preserveAspectRatio="xMidYMid meet" version="1.0"><defs><clipPath id="1e7594c6e3"><path d="M 363 240 L 772.585938 240 L 772.585938 699.039062 L 363 699.039062 Z M 363 240 " clip-rule="nonzero"></path></clipPath><clipPath id="1083e79e77"><path d="M 37.644531 110.199219 L 447 110.199219 L 447 570 L 37.644531 570 Z M 37.644531 110.199219 " clip-rule="nonzero"></path></clipPath><clipPath id="SvgjsClipPath1012"><rect width="1000" height="1000" x="0" y="0" rx="350" ry="350"></rect></clipPath></defs><path fill="#0f1925" d="M 441.660156 339.28125 L 432.144531 394.097656 C 429.019531 412.085938 415.425781 425.660156 398.679688 429.679688 L 398.667969 429.675781 L 342.726562 448.171875 C 340.160156 449.023438 338.007812 446.117188 339.570312 443.925781 L 354.574219 422.960938 C 356.289062 420.570312 356.113281 417.363281 354.210938 415.113281 C 349.476562 409.515625 346.152344 402.777344 344.644531 395.488281 L 363.234375 398.691406 C 365.105469 399.015625 366.949219 398.554688 368.386719 397.535156 C 369.832031 396.527344 370.886719 394.964844 371.210938 393.101562 C 371.859375 389.359375 369.339844 385.796875 365.585938 385.148438 L 344.035156 381.433594 C 344.128906 380.609375 344.246094 379.785156 344.390625 378.957031 L 345.621094 371.875 L 367.242188 375.605469 C 369.113281 375.929688 370.957031 375.46875 372.394531 374.445312 C 373.84375 373.429688 374.894531 371.878906 375.21875 370 C 375.871094 366.257812 373.351562 362.699219 369.597656 362.050781 L 347.972656 358.320312 L 349.632812 348.777344 L 371.253906 352.507812 C 373.125 352.828125 374.96875 352.371094 376.40625 351.347656 C 377.851562 350.34375 378.90625 348.765625 379.230469 346.902344 C 379.878906 343.160156 377.363281 339.601562 373.605469 338.953125 L 351.984375 335.222656 L 353.640625 325.679688 L 375.265625 329.410156 C 377.136719 329.730469 378.980469 329.273438 380.414062 328.25 C 381.863281 327.234375 382.914062 325.683594 383.238281 323.804688 C 383.890625 320.0625 381.371094 316.515625 377.613281 315.867188 L 357.886719 312.464844 C 366.347656 295.519531 384.835938 284.859375 404.425781 287.824219 C 416.960938 289.710938 427.4375 296.617188 434.171875 306.136719 C 440.742188 315.421875 443.757812 327.214844 441.660156 339.28125 Z M 441.660156 339.28125 " fill-opacity="1" fill-rule="nonzero"></path><g clip-path="url(#1e7594c6e3)"><path fill="#000000" d="M 567.957031 240.042969 C 454.941406 240.042969 363.328125 331.605469 363.328125 444.558594 C 363.328125 445.386719 363.335938 446.207031 363.34375 447.035156 L 363.328125 687.679688 C 363.328125 697.226562 374.402344 702.496094 381.816406 696.484375 L 470.558594 624.46875 C 499.523438 640.160156 532.699219 649.074219 567.957031 649.074219 C 680.96875 649.074219 772.585938 557.503906 772.585938 444.558594 C 772.585938 331.605469 680.96875 240.042969 567.957031 240.042969 " fill-opacity="1" fill-rule="nonzero"></path></g><g clip-path="url(#1083e79e77)"><path fill="#f9db00" d="M 446.890625 317.890625 C 446.898438 317.0625 446.90625 316.238281 446.90625 315.410156 C 446.90625 202.464844 355.292969 110.894531 242.277344 110.894531 C 129.257812 110.894531 37.644531 202.464844 37.644531 315.410156 C 37.644531 428.367188 129.257812 519.925781 242.277344 519.925781 C 277.53125 519.925781 310.710938 511.015625 339.667969 495.320312 L 428.410156 567.339844 C 435.824219 573.351562 446.90625 568.082031 446.90625 558.53125 L 446.890625 317.890625 " fill-opacity="1" fill-rule="nonzero"></path></g><path fill="#000000" d="M 251.644531 459.429688 L 232.90625 459.429688 C 226.894531 459.429688 222.015625 454.558594 222.015625 448.546875 L 222.015625 438.335938 C 222.015625 432.332031 226.894531 427.460938 232.90625 427.460938 L 251.644531 427.460938 C 257.65625 427.460938 262.535156 432.332031 262.535156 438.335938 L 262.535156 448.546875 C 262.535156 454.558594 257.65625 459.429688 251.644531 459.429688 " fill-opacity="1" fill-rule="nonzero"></path><path fill="#000000" d="M 255.46875 483.800781 L 229.082031 483.800781 C 225.183594 483.800781 222.015625 480.640625 222.015625 476.742188 L 222.015625 476.597656 C 222.015625 472.699219 225.183594 469.539062 229.082031 469.539062 L 255.46875 469.539062 C 259.367188 469.539062 262.535156 472.699219 262.535156 476.597656 L 262.535156 476.742188 C 262.535156 480.640625 259.367188 483.800781 255.46875 483.800781 " fill-opacity="1" fill-rule="nonzero"></path><path fill="#000000" d="M 314.816406 340.679688 L 314.816406 363.390625 C 314.816406 402.945312 282.730469 435.015625 243.144531 435.015625 L 241.691406 435.015625 C 201.953125 435.015625 169.734375 402.816406 169.734375 363.097656 L 169.734375 340.679688 C 169.734375 336.84375 166.625 333.730469 162.789062 333.730469 L 162.644531 333.730469 C 158.804688 333.730469 155.699219 336.84375 155.699219 340.679688 L 155.699219 363.667969 C 155.699219 410.824219 193.941406 449.046875 241.125 449.046875 L 242.859375 449.046875 C 290.347656 449.046875 328.851562 410.5625 328.851562 363.097656 L 328.851562 340.679688 C 328.851562 336.84375 325.746094 333.730469 321.90625 333.730469 L 321.761719 333.730469 C 317.925781 333.730469 314.816406 336.84375 314.816406 340.679688 " fill-opacity="1" fill-rule="nonzero"></path><path fill="#000000" d="M 230.570312 438.582031 L 230.570312 519.597656 C 234.445312 519.8125 238.347656 519.925781 242.277344 519.925781 C 246.203125 519.925781 250.105469 519.8125 253.980469 519.597656 L 253.980469 438.582031 L 230.570312 438.582031 " fill-opacity="1" fill-rule="nonzero"></path><path fill="#000000" d="M 282.683594 219.171875 L 282.683594 284.578125 C 282.683594 288.71875 279.328125 292.070312 275.183594 292.070312 L 275.03125 292.070312 C 270.894531 292.070312 267.53125 288.710938 267.53125 284.578125 L 267.53125 207.902344 C 267.53125 206.46875 266.679688 205.171875 265.359375 204.613281 C 261.785156 203.085938 258.015625 201.921875 254.117188 201.144531 C 251.898438 200.707031 249.84375 202.402344 249.84375 204.652344 C 249.84375 221.65625 249.851562 284.578125 249.851562 284.578125 C 249.851562 288.71875 246.488281 292.070312 242.351562 292.070312 L 242.199219 292.070312 C 238.0625 292.070312 234.699219 288.71875 234.699219 284.578125 C 234.699219 284.578125 234.707031 221.65625 234.707031 204.652344 C 234.707031 202.402344 232.652344 200.707031 230.433594 201.144531 C 226.527344 201.921875 222.765625 203.085938 219.191406 204.613281 C 217.871094 205.171875 217.011719 206.46875 217.011719 207.902344 L 217.011719 284.578125 C 217.011719 288.71875 213.65625 292.070312 209.519531 292.070312 L 209.367188 292.070312 C 205.222656 292.070312 201.867188 288.710938 201.867188 284.578125 L 201.867188 219.171875 C 201.867188 218.003906 200.441406 217.445312 199.648438 218.296875 C 190.050781 228.574219 184.171875 242.367188 184.171875 257.539062 L 184.171875 359.371094 C 184.171875 391.125 209.917969 416.859375 241.691406 416.859375 L 242.859375 416.859375 C 274.625 416.859375 300.378906 391.125 300.378906 359.371094 L 300.378906 257.539062 C 300.378906 242.367188 294.5 228.574219 284.902344 218.296875 C 284.109375 217.445312 282.683594 218.003906 282.683594 219.171875 " fill-opacity="1" fill-rule="nonzero"></path><path fill="#f9db00" d="M 591.59375 469.539062 C 591.59375 456.492188 581.011719 445.914062 567.957031 445.914062 C 554.902344 445.914062 544.320312 456.492188 544.320312 469.539062 C 544.320312 482.585938 554.902344 493.164062 567.957031 493.164062 C 581.011719 493.164062 591.59375 482.585938 591.59375 469.539062 " fill-opacity="1" fill-rule="nonzero"></path><path fill="#f9db00" d="M 667.429688 469.539062 C 667.429688 456.492188 656.84375 445.914062 643.792969 445.914062 C 630.738281 445.914062 620.152344 456.492188 620.152344 469.539062 C 620.152344 482.585938 630.738281 493.164062 643.792969 493.164062 C 656.84375 493.164062 667.429688 482.585938 667.429688 469.539062 " fill-opacity="1" fill-rule="nonzero"></path><path fill="#f9db00" d="M 515.753906 469.539062 C 515.753906 456.492188 505.171875 445.914062 492.117188 445.914062 C 479.0625 445.914062 468.480469 456.492188 468.480469 469.539062 C 468.480469 482.585938 479.0625 493.164062 492.117188 493.164062 C 505.171875 493.164062 515.753906 482.585938 515.753906 469.539062 " fill-opacity="1" fill-rule="nonzero"></path></svg></svg></g></g></svg>